HIERARCHY
ROOT Hips
{
   OFFSET 0.00000 0.00000 0.00000
   CHANNELS 6 Xposition Yposition Zposition Zrotation Xrotation Yrotation
   JOINT Spine
   {
      OFFSET 0.000000 13.079551 0.000000
      CHANNELS 3 Zrotation Xrotation Yrotation
      JOINT Spine1
      {
         OFFSET -0.000000 28.223142 0.140426
         CHANNELS 3 Zrotation Xrotation Yrotation
         JOINT HEad
         {
            OFFSET 0.000000 9.607577 0.012474
            CHANNELS 3 Zrotation Xrotation Yrotation
            End Site
            {
               OFFSET -0.319000 14.051621 2.765345
            }
         }
         JOINT LeftShoulder1
         {
            OFFSET 9.889000 -0.398475 -0.242000
            CHANNELS 3 Zrotation Xrotation Yrotation
            JOINT LeftArm
            {
               OFFSET 11.310971 -0.003718 0.354332
               CHANNELS 3 Zrotation Xrotation Yrotation
               JOINT LeftForeArm
               {
                  OFFSET 36.043591 0.109054 -1.566774
                  CHANNELS 3 Zrotation Xrotation Yrotation
                  JOINT LeftHand
                  {
                     OFFSET 30.320732 0.093896 1.124376
                     CHANNELS 3 Zrotation Xrotation Yrotation
                     End Site
                     {
                        OFFSET 18.418731 -0.660000 1.653201
                     }
                  }
               }
            }
         }
         JOINT RightShoulder
         {
            OFFSET -9.889000 -0.398475 -0.242000
            CHANNELS 3 Zrotation Xrotation Yrotation
            JOINT RightArm
            {
               OFFSET -11.310971 -0.003718 0.354332
               CHANNELS 3 Zrotation Xrotation Yrotation
               JOINT RightForeArm
               {
                  OFFSET -36.186809 0.109054 -1.566774
                  CHANNELS 3 Zrotation Xrotation Yrotation
                  JOINT RightHand
                  {
                     OFFSET -30.241313 0.093896 1.124376
                     CHANNELS 3 Zrotation Xrotation Yrotation
                     End Site
                     {
                        OFFSET -18.294322 -0.660000 1.653201
                     }
                  }
               }
            }
         }
      }
   }
   JOINT LeftUpLeg
   {
      OFFSET 9.840380 -9.533777 0.111815
      CHANNELS 3 Zrotation Xrotation Yrotation
      JOINT LeftLeg
      {
         OFFSET 0.000000 -48.864969 1.509970
         CHANNELS 3 Zrotation Xrotation Yrotation
         JOINT LeftFoot
         {
            OFFSET -0.278905 -46.301641 -1.606649
            CHANNELS 3 Zrotation Xrotation Yrotation
            JOINT LeftToes
            {
               OFFSET -0.044000 -4.856599 9.349010
               CHANNELS 3 Zrotation Xrotation Yrotation
               End Site
               {
                  OFFSET 0.088000 -0.052195 10.757769
               }
            }
         }
      }
   }
   JOINT RightUpLeg
   {
      OFFSET -9.840380 -9.533777 0.111815
      CHANNELS 3 Zrotation Xrotation Yrotation
      JOINT RightLeg
      {
         OFFSET 0.000000 -48.864969 1.509970
         CHANNELS 3 Zrotation Xrotation Yrotation
         JOINT RightFoot
         {
            OFFSET 0.278905 -46.301641 -1.606649
            CHANNELS 3 Zrotation Xrotation Yrotation
            JOINT RightToes
            {
               OFFSET 0.044000 -4.856599 9.349010
               CHANNELS 3 Zrotation Xrotation Yrotation
               End Site
               {
                  OFFSET -0.088000 -0.151195 10.757769
               }
            }
         }
      }
   }
}
MOTION
Frames: 12
Frame Time: 0.016670
87.713460 70.423049 -114.442404 -10.851323 1.940325 -28.668968 5.786837 16.047770 5.595600 -0.826692 -0.356771 -0.071578 6.895221 10.205849 14.590239 -10.213354 8.237123 11.534122 -76.720776 -39.811872 -63.950317 -54.965831 47.628326 -100.447795 2.985353 12.630932 13.693660 16.300486 45.234526 19.211492 98.510056 -29.328757 118.624553 17.319970 61.244599 115.848109 -0.784416 2.579609 -14.180951 25.998898 -53.555920 38.808903 27.066988 83.677699 0.828112 82.664857 -10.813780 10.591760 -90.430612 -7.844144 -28.203192 -24.745323 -29.556841 1.707570 -5.440551 54.598825 16.751753 43.015223 -20.435122 8.439652 0.784172 12.171315 -31.185783
91.071881 74.582366 -112.749327 -12.579104 3.351832 -31.976914 10.031580 13.622279 3.636452 -0.147365 -0.125989 0.314917 3.525258 19.619910 16.232918 -13.634583 9.292834 14.851205 -74.816970 -39.933968 -61.512779 -54.064793 47.692602 -101.234544 3.261844 12.854088 16.069374 11.220091 46.721195 23.268119 98.939798 -30.762130 117.969566 18.601315 61.796369 115.081734 -0.662264 8.003294 -12.700694 23.325110 -49.416303 37.727602 26.773092 77.347774 -2.518421 62.308920 -12.417532 9.781748 -68.348228 -13.620766 -21.535448 -20.801327 -27.977495 -1.185105 -3.236351 58.466508 19.017127 39.248828 -20.593032 6.978976 12.924169 20.585219 -33.172979
94.134739 78.698224 -111.145113 -13.298154 4.136031 -34.778145 12.811580 11.273310 1.986896 -0.156903 -0.486752 0.488040 -0.032600 27.319416 17.738502 -17.095957 9.765375 17.198550 -72.101294 -40.270563 -58.997712 -53.060594 48.253060 -102.695903 2.271995 12.442492 14.031268 7.501345 47.725674 26.847023 99.337418 -32.236191 116.691542 20.197377 61.894040 114.629794 0.589758 3.817213 -12.935127 20.068979 -45.689598 35.939810 25.325493 70.404620 -6.269752 41.829482 -14.495413 8.177943 -50.089274 7.472503 -27.916221 -16.221576 -25.810233 -4.345976 -2.892326 64.130757 22.047624 40.016746 -19.966800 6.094976 -2.823771 11.639352 -22.741912
97.037486 82.860469 -109.684313 -13.493266 4.748659 -36.804198 14.746920 9.543887 0.805465 0.007327 -0.871613 0.636087 -3.500567 33.511408 19.093063 -20.085838 10.143684 18.886938 -69.538921 -40.883381 -56.777351 -52.178291 49.012000 -104.126104 2.042816 12.813927 15.696968 4.731331 48.510674 29.380585 99.301552 -34.150942 114.950663 21.632551 62.113563 114.414295 0.750782 7.392771 -12.700493 17.022488 -42.082339 33.322400 25.343624 63.684438 -12.508557 30.059652 -16.319762 5.978682 -39.206966 0.374271 -16.147663 -11.640883 -23.579510 -7.744184 -3.704434 70.762727 24.851495 40.502045 -19.378464 4.804570 2.567097 19.501822 -21.038788
99.582632 86.703604 -108.442152 -11.076652 4.505785 -39.396739 13.819540 7.313864 0.795737 0.169886 -1.298204 0.729732 -6.732485 38.396305 20.273914 -22.689211 10.529531 20.128530 -67.105973 -41.740696 -54.784575 -51.217195 49.867682 -105.452431 1.619749 12.499314 14.906960 2.975256 48.926728 31.132945 99.131139 -36.080631 113.304840 23.014707 62.195286 114.438563 1.204766 5.120386 -13.463912 12.211254 -39.627709 30.372444 24.310067 56.624690 -18.210411 17.876120 -18.431327 4.129083 -20.117395 13.520855 -21.790438 -8.491202 -21.918946 -10.590090 -4.377491 77.348218 26.275671 39.755369 -18.781526 3.210977 5.665492 16.659996 -12.308862
101.772011 90.076121 -107.517794 -8.674603 4.081637 -41.601395 11.604472 6.313864 1.573655 0.185037 -1.902172 0.575868 -8.388514 41.344826 20.463431 -23.916790 9.927189 19.622430 -64.879222 -42.486376 -53.073763 -50.370531 50.502166 -106.694870 1.848737 12.793462 16.402943 3.417931 48.449838 31.488343 98.686166 -37.813256 111.470231 24.001280 62.393047 114.546917 1.275792 7.308071 -13.938434 7.524750 -37.611519 26.211935 23.344094 49.737957 -22.881815 5.107912 -19.657201 2.137278 -14.213601 12.122155 -9.105569 -5.103241 -19.039285 -12.472391 -4.742973 79.710883 25.104263 25.688160 -18.623858 1.006017 3.786047 10.046781 -9.036082
103.770512 92.900847 -106.946791 -4.396583 3.334125 -44.288989 7.844065 4.570571 3.639713 0.170023 -2.485397 0.601730 -9.887986 43.481442 20.703468 -24.781058 9.756498 19.018990 -62.699661 -43.764803 -51.668940 -49.316175 51.198118 -107.478272 2.009610 12.605003 16.420092 4.300491 48.242787 30.984142 97.870716 -39.507532 109.511510 24.440239 62.810467 114.472140 1.203860 6.393543 -15.047187 1.682056 -37.181600 21.494947 22.581843 43.169859 -26.911174 -8.349254 -21.017204 -0.337424 12.735216 17.021127 -11.224426 -3.115892 -16.645431 -13.115400 -4.301675 78.479283 22.493840 19.967500 -18.666506 0.382520 -2.609524 -8.821420 1.768541
105.434712 95.139807 -106.710413 -0.899186 2.755056 -46.323999 4.810361 2.722732 5.000882 -0.075791 -2.920582 0.190316 -11.106688 44.839700 20.897529 -25.351410 9.441937 17.967511 -60.786751 -45.270808 -50.666350 -48.698306 51.525007 -108.126150 2.149505 12.894850 17.535006 6.379491 48.070082 29.978407 96.757785 -40.672127 107.997933 24.863203 63.201557 114.767300 1.185219 7.777435 -15.312101 -3.361796 -36.124990 15.483455 22.466676 36.336197 -29.421678 -22.214948 -22.345123 -2.400803 13.116300 18.837190 1.655730 -1.012221 -13.435244 -12.762678 -3.017133 73.068756 17.784940 10.808546 -18.645791 -0.607981 -2.200959 -20.060102 0.444105
106.847533 96.860627 -106.736601 1.841043 2.484115 -47.994182 2.375912 1.014457 6.008576 -0.713099 -3.078390 -0.373726 -12.152742 45.346907 21.138732 -25.757335 9.290479 16.860086 -58.955276 -46.947360 -50.201177 -48.527558 51.851644 -108.524924 1.742304 12.866535 17.435219 9.224322 48.309115 28.600700 95.611201 -41.385165 106.844663 24.942514 63.730644 114.905666 1.048403 7.164232 -15.489515 -7.517405 -34.796969 8.443558 22.588704 30.357011 -30.981007 -36.027171 -23.615625 -4.309317 33.994084 20.659224 -10.101052 0.839593 -10.445701 -12.294163 -3.488729 65.285974 14.888955 6.312087 -18.587267 -1.583236 -8.130736 -29.942306 -2.069316
108.313225 97.854203 -106.932095 3.939311 2.574193 -48.739345 0.410368 0.380016 6.338217 -1.774584 -0.909075 -1.441271 -13.179639 44.885589 21.501014 -20.115889 11.274284 5.523530 -67.199506 -59.095432 -53.240744 -47.823646 52.756753 -108.160704 0.709311 12.738686 18.118330 17.201726 46.157186 14.959564 91.736885 -30.400117 105.886469 24.369854 64.531013 113.862607 0.819311 8.197020 -15.450805 -9.800698 -33.749959 2.135009 20.888592 26.495583 -29.512459 -26.315956 -22.950976 -2.717948 16.890585 23.379543 2.356382 2.576657 -7.254053 -11.875587 -5.273641 56.177114 12.974487 -1.572593 -18.535971 -2.686644 12.153115 -23.539697 -9.451885
109.659794 98.478449 -107.195347 5.269199 2.979071 -49.079759 -0.534285 -0.375955 6.861343 -1.857938 0.890103 -2.282080 -14.161804 44.344337 21.894136 -16.240786 12.352395 -1.980238 -74.810065 -66.134037 -57.237347 -46.947415 52.808246 -108.135186 -0.752203 12.536577 18.241055 22.930120 44.387449 5.523307 88.938571 -24.043779 105.307556 24.295418 65.295782 112.943837 0.727812 8.680637 -14.752901 -11.181343 -32.661162 -3.841623 19.372780 22.914195 -27.758157 -16.284940 -23.027097 -0.939941 1.140417 23.409973 8.438217 4.809605 -3.786483 -11.807468 -7.103217 46.561102 11.435233 -7.044863 -18.376381 -4.008368 18.873713 -21.721549 -16.745773
110.959032 98.822382 -107.423952 5.967546 3.412688 -49.331960 -0.689375 -1.718778 7.146544 -1.554344 1.535919 -3.296050 -15.103150 43.954374 22.315283 -13.237396 12.258094 -7.180635 -77.873084 -68.941928 -59.212214 -45.896733 51.044842 -108.248998 -2.262178 12.280927 17.945970 27.207073 43.263818 -0.744619 87.012047 -20.110076 105.381418 24.635693 66.043394 112.362438 0.622044 8.824807 -13.472313 -11.795438 -31.548422 -9.437967 18.192631 19.779961 -26.343124 -6.186086 -23.035255 1.088881 -12.961524 20.606189 10.198500 7.246982 0.278867 -12.024306 -8.781764 36.182138 10.143031 -10.560395 -18.168926 -5.171904 17.808199 -21.142390 -20.753217
